<?xml version="1.0" encoding="UTF-8"?>
<svg version="1.1" xmlns="http://www.w3.org/2000/svg" width="456" height="456">
<path d="M0 0 C1.12857422 -0.02900391 2.25714844 -0.05800781 3.41992188 -0.08789062 C5.06250977 -0.10045898 5.06250977 -0.10045898 6.73828125 -0.11328125 C7.73512939 -0.12786377 8.73197754 -0.14244629 9.7590332 -0.1574707 C13.7588042 0.48442669 15.65707749 1.59934819 18.6875 4.3125 C19.57334553 7.45294426 19.45646445 10.51505186 19.38452148 13.75927734 C19.38824516 15.1941021 19.38824516 15.1941021 19.39204407 16.65791321 C19.39296285 19.82222433 19.35112802 22.984436 19.30859375 26.1484375 C19.29993811 28.3479429 19.29379302 30.5474595 19.29005432 32.74697876 C19.27281078 38.54174153 19.2186798 44.33562074 19.15777588 50.13006592 C19.11424952 54.8543379 19.09664043 59.57853557 19.08050442 64.30296898 C19.06086927 69.93900974 19.03033396 75.57496826 18.99609375 81.2109375 C18.98966795 82.28510296 18.98324215 83.35926842 18.97662163 84.46598434 C18.95558156 87.51305133 18.92729158 90.55995398 18.89624023 93.60693359 C18.89040924 94.50480087 18.88457825 95.40266815 18.87857056 96.32774353 C18.82524975 100.76229717 18.57564859 104.94720503 17.6875 109.3125 C18.49436752 109.29331009 19.30123505 109.27412018 20.1325531 109.25434875 C27.76716725 109.07561466 35.40188718 108.91229126 43.03718472 108.76591206 C46.9617982 108.69013778 50.8861075 108.60858211 54.81030273 108.51342773 C58.60320918 108.42167604 62.39614611 108.34561558 66.18959236 108.28005028 C67.63084555 108.25245472 69.07200536 108.21937494 70.51299858 108.18050575 C88.41775312 107.70612297 88.41775312 107.70612297 94.34188843 112.70985413 C95.77886843 114.18759964 97.01113123 115.72818774 98.25 117.375 C98.71196777 117.95209717 99.17393555 118.52919434 99.64990234 119.1237793 C101.01675094 120.83814382 102.35571488 122.57081704 103.6875 124.3125 C111.9993141 135.07427016 121.6386622 146.44213772 135.6875 149.3125 C138.62727717 149.29079088 141.54092123 149.21287851 144.4765625 149.09375 C146.24082081 149.04697521 148.00514926 149.00278798 149.76953125 148.9609375 C152.53595184 148.89340415 155.29851124 148.81313077 158.06298828 148.68847656 C175.39300708 147.93621386 175.39300708 147.93621386 181.73046875 153.62109375 C183.08933812 155.15038753 184.41288444 156.71230607 185.6875 158.3125 C186.90386832 159.51310612 188.13232991 160.70163817 189.375 161.875 C191.64623114 164.18012029 193.79682476 166.55761868 195.91015625 169.0078125 C199.65622133 173.30672945 203.5237491 177.47881047 207.4375 181.625 C208.47487305 182.72606079 208.47487305 182.72606079 209.53320312 183.84936523 C215.1431417 189.78230421 220.85854347 195.59468883 226.6875 201.3125 C236.57780975 195.7247482 244.38250409 186.75635883 252.3125 178.75 C253.22128906 177.83669922 254.13007813 176.92339844 255.06640625 175.98242188 C257.27577955 173.76142029 259.48276031 171.53809967 261.6875 169.3125 C260.29363444 165.62986017 260.29363444 165.62986017 258.125 162.375 C256.19530872 159.6063125 255.7562953 157.68346955 255.6875 154.3125 C258.5932787 149.66473662 262.26653832 147.63041389 267.125 145.4375 C267.91052246 145.07309814 268.69604492 144.70869629 269.50537109 144.33325195 C280.41415758 139.38151261 291.58048824 134.99147168 302.70092773 130.54150391 C303.4831369 130.22843796 304.26534607 129.91537201 305.07125854 129.59281921 C306.59448975 128.98337591 308.11794245 128.37448587 309.64163208 127.76618958 C314.11241862 125.97314253 318.52965937 124.10466368 322.87719727 122.02636719 C327.27160615 120.29349442 331.75877916 119.6539124 336.25 121.1875 C338.64502129 124.72796626 338.28429111 128.2443797 337.6875 132.3125 C335.99868773 137.58079755 333.81987244 142.61353757 331.625 147.6875 C330.99778545 149.16863143 330.37191369 150.65033214 329.74731445 152.13256836 C328.09060578 156.05261577 326.41389396 159.9638038 324.7331543 163.87359619 C323.31538758 167.18042202 321.91130958 170.49298442 320.50743103 173.8057251 C317.54483071 180.79488065 314.57251572 187.7799842 311.57421875 194.75390625 C311.29568054 195.40642868 311.01714233 196.05895111 310.73016357 196.73124695 C308.80300926 201.19699074 308.80300926 201.19699074 307.6875 202.3125 C302.65988274 202.83259834 299.98705809 202.91219754 296 199.6875 C295.48050781 199.20023438 294.96101563 198.71296875 294.42578125 198.2109375 C292.6718433 197.07817776 292.6718433 197.07817776 290.45703125 197.734375 C286.46070457 200.01154846 283.36665146 203.01102054 280.0625 206.1875 C279.35971924 206.85571777 278.65693848 207.52393555 277.93286133 208.21240234 C266.63893582 218.81348372 266.63893582 218.81348372 257.6875 231.3125 C258.32816406 231.9415625 258.96882813 232.570625 259.62890625 233.21875 C264.87363984 238.40876953 269.92928485 243.67196681 274.6875 249.3125 C278.23268884 247.91490095 278.23268884 247.91490095 281.6875 246.3125 C285.76722439 245.85064441 287.8694763 245.68159281 291.1796875 248.23461914 C294.41217909 252.20191095 295.84184284 256.13513096 297.5 260.93359375 C297.83620361 261.86994156 298.17240723 262.80628937 298.51879883 263.77101135 C299.58837414 266.75944934 300.63820368 269.75438931 301.6875 272.75 C302.391929 274.72897891 303.09764642 276.7074997 303.8046875 278.68554688 C305.16577129 282.49869093 306.51574532 286.31547193 307.85668945 290.13574219 C308.97424172 293.3136827 310.11220416 296.48151958 311.28979492 299.63769531 C311.74459229 300.86456055 312.19938965 302.09142578 312.66796875 303.35546875 C313.05621826 304.38309326 313.44446777 305.41071777 313.84448242 306.46948242 C315.12014097 310.77155127 315.1475227 314.87583663 314.6875 319.3125 C315.68910156 319.28929687 316.69070313 319.26609375 317.72265625 319.2421875 C319.06509664 319.22341211 320.40754518 319.20521382 321.75 319.1875 C323.06097656 319.16429687 324.37195313 319.14109375 325.72265625 319.1171875 C329.78217857 319.31716397 332.93258404 319.74677974 336.6875 321.3125 C339.60890354 326.83468744 339.05554123 332.72357308 339.0625 338.8125 C339.08699219 339.94042969 339.11148437 341.06835938 339.13671875 342.23046875 C339.16598439 350.47362523 339.16598439 350.47362523 336.8515625 354.53125 C333.32074029 357.43748633 330.39308932 357.43862403 325.97835827 357.44392776 C324.78128063 357.44776891 323.584203 357.45161005 322.35085028 357.4555676 C321.01573505 357.45478732 319.68061987 357.45390852 318.34550476 357.45294189 C316.9323844 357.45552489 315.51926477 357.45853787 314.10614616 357.4619453 C310.21376441 357.47002621 306.32140109 357.47180547 302.42901194 357.47254276 C298.23463165 357.47439141 294.04026098 357.48193777 289.84588623 357.48867798 C280.67033513 357.50226937 271.49478838 357.50828722 262.31922889 357.51268864 C256.59217533 357.51544958 250.86512347 357.51968665 245.13807106 357.52419281 C229.28772812 357.53638631 213.43738653 357.54668561 197.58703899 357.5500679 C196.57226307 357.55028747 195.55748715 357.55050703 194.51196044 357.55073325 C193.49473033 357.55095153 192.47750023 357.55116981 191.42944497 357.5513947 C189.36808375 357.55183817 187.30672254 357.55228473 185.24536133 357.55273438 C183.71159558 357.55306652 183.71159558 357.55306652 182.14684466 357.55340537 C165.5741279 357.55735438 149.00145509 357.57481117 132.42875531 357.5980939 C115.42194297 357.62179405 98.4151527 357.63426914 81.40832359 357.63543582 C71.85632009 357.63635331 62.30437384 357.64212424 52.75238609 357.66025543 C44.61947977 357.67563837 36.48664839 357.68078757 28.35373028 357.67251733 C24.20313849 357.66860446 20.05269772 357.66957137 15.9021244 357.68357468 C12.10292337 357.69627547 8.30398742 357.69514994 4.50478695 357.68298396 C2.47830743 357.6800896 0.45182349 357.69199161 -1.57462007 357.70440602 C-3.38197138 357.69452126 -3.38197138 357.69452126 -5.22583485 357.6844368 C-6.26388289 357.68503389 -7.30193094 357.68563097 -8.37143499 357.68624616 C-11.92965019 357.23407347 -14.30014608 356.25188562 -17.3125 354.3125 C-18.76856904 351.25015552 -18.43989635 347.83475437 -18.44392776 344.48031044 C-18.44776891 343.28124176 -18.45161005 342.08217307 -18.4555676 340.84676898 C-18.45470112 339.52791779 -18.45383463 338.20906661 -18.45294189 336.85025024 C-18.45552567 335.43626683 -18.45853887 334.02228415 -18.4619453 332.60830247 C-18.47001687 328.71818007 -18.47180495 324.82807611 -18.47254276 320.93794632 C-18.474393 316.74426529 -18.48194012 312.55059383 -18.48867798 308.35691833 C-18.50226218 299.18555854 -18.50828594 290.01420313 -18.51268864 280.84283495 C-18.51545048 275.11795363 -18.51968769 269.393074 -18.52419281 263.66819382 C-18.53638478 247.82209949 -18.54668476 231.97600652 -18.5500679 216.12990761 C-18.55028747 215.1156668 -18.55050703 214.101426 -18.55073325 213.05645063 C-18.55095153 212.03976862 -18.55116981 211.02308662 -18.5513947 209.97559607 C-18.55183817 207.91537134 -18.55228473 205.85514661 -18.55273438 203.79492188 C-18.5529558 202.77297688 -18.55317723 201.75103188 -18.55340537 200.69811885 C-18.557355 184.13193219 -18.57481435 167.56578947 -18.5980939 150.9996198 C-18.62179384 133.99729586 -18.63426911 116.99499398 -18.63543582 99.99265325 C-18.63635326 90.4440181 -18.64212302 80.89544023 -18.66025543 71.34682083 C-18.675638 63.21759852 -18.68078775 55.08845118 -18.67251733 46.95921709 C-18.66860449 42.81064358 -18.66957127 38.66222117 -18.68357468 34.51366615 C-18.69627545 30.71635539 -18.69514997 26.91930986 -18.68298396 23.12199967 C-18.68008963 21.09656187 -18.69199155 19.07111965 -18.70440602 17.04571784 C-18.69781618 15.84143366 -18.69122633 14.63714948 -18.6844368 13.39637184 C-18.68503389 12.35886587 -18.68563097 11.32135989 -18.68624616 10.25241435 C-18.23752628 6.7227513 -17.18354402 4.32803907 -15.3125 1.3125 C-10.34359156 -0.34380281 -5.20312913 0.04411924 0 0 Z M17.6875 145.3125 C17.6875 203.3925 17.6875 261.4725 17.6875 321.3125 C31.55544798 323.23709376 31.55544798 323.23709376 42.65625 317.72192383 C43.1615625 317.16013428 43.666875 316.59834473 44.1875 316.01953125 C44.76105225 315.39304687 45.33460449 314.7665625 45.92553711 314.12109375 C46.50698486 313.46238281 47.08843262 312.80367187 47.6875 312.125 C48.60704468 311.11179687 48.60704468 311.11179687 49.54516602 310.078125 C53.14427598 306.09902646 56.68540032 302.06807457 60.18359375 298 C62.34065373 295.57961062 64.6568611 293.33382944 66.96875 291.0625 C68.62976521 289.37128452 70.15811403 287.62279359 71.6875 285.8125 C75.31006066 281.59715668 79.2411048 277.72060392 83.1875 273.8125 C87.59619005 269.44638029 91.88493159 265.07833695 95.88671875 260.33203125 C98.87234963 256.9837207 102.10197753 253.87872801 105.29248047 250.72705078 C107.97385197 248.06578329 110.56279999 245.39063257 113 242.5 C117.11182439 237.65718461 121.69689023 233.27902263 126.20703125 228.8125 C129.9689367 225.07307605 133.57989449 221.28703666 136.9921875 217.22265625 C140.05546057 213.77118037 143.42308628 210.61326195 146.74609375 207.4140625 C148.91368786 205.54449491 148.91368786 205.54449491 148.6875 203.3125 C152.57197081 202.14715876 155.02095465 202.16782062 158.625 203.875 C165.09007779 207.47626957 169.89994671 212.36958027 174.66015625 217.9609375 C177.17670375 220.87993865 179.76961861 223.72285903 182.375 226.5625 C182.83874023 227.06990723 183.30248047 227.57731445 183.78027344 228.10009766 C185.07522139 229.51111546 186.38110362 230.91207509 187.6875 232.3125 C188.76644531 233.48039062 188.76644531 233.48039062 189.8671875 234.671875 C191.58084522 236.58448152 191.58084522 236.58448152 194.125 236.3125 C197.1682065 235.12490722 199.25284398 233.46890961 201.6875 231.3125 C200.20566798 225.92833911 196.5838569 222.84332073 192.703125 219.0703125 C192.0099115 218.38371552 191.316698 217.69711853 190.60247803 216.98971558 C188.38781783 214.79841572 186.16326386 212.61751579 183.9375 210.4375 C181.72773372 208.26297027 179.52017784 206.0862635 177.31536865 203.90670776 C175.94513384 202.55324107 174.57181626 201.20288553 173.19488525 199.85623169 C170.14963111 196.85786855 167.27853199 193.85718491 164.59277344 190.53076172 C161.40653331 186.80289866 158.46683237 184.65107618 153.44839478 184.03973389 C150.74893825 183.88608321 148.06704858 183.84525482 145.36328125 183.8359375 C144.38006393 183.82035797 143.39684662 183.80477844 142.38383484 183.78872681 C139.25589752 183.74135994 136.12818169 183.71348997 133 183.6875 C129.86126255 183.6509835 126.72264991 183.61036626 123.58403015 183.56484985 C121.63424495 183.53766977 119.68436835 183.51629834 117.73445129 183.50131226 C116.8531102 183.49105011 115.9717691 183.48078796 115.0637207 183.47021484 C114.2890596 183.46371918 113.5143985 183.45722351 112.71626282 183.45053101 C110.6875 183.3125 110.6875 183.3125 107.6875 182.3125 C106.67456055 180.4777832 106.67456055 180.4777832 105.6875 178.3125 C103.73990883 175.61753933 101.60652373 173.07200135 99.5 170.5 C98.94763672 169.81357422 98.39527344 169.12714844 97.82617188 168.41992188 C90.26767697 159.14079399 82.44837119 152.82086246 72.6875 145.3125 C54.5375 145.3125 36.3875 145.3125 17.6875 145.3125 Z M147.6875 256.3125 C145.92915962 258.24379189 144.23262771 260.21877077 142.5390625 262.20703125 C140.66656311 264.33630798 138.70966408 266.32547004 136.6875 268.3125 C133.41547872 271.5340855 130.39433945 274.89842145 127.40234375 278.37890625 C125.72745701 280.26744597 123.98802413 282.04405648 122.1875 283.8125 C119.85626968 286.10265137 117.67781436 288.44705601 115.5625 290.9375 C111.75835939 295.36131963 107.61462784 299.41295315 103.46875 303.51171875 C99.8342444 307.12086733 96.35762174 310.8075369 93.0546875 314.7265625 C91.6875 316.3125 91.6875 316.3125 90.0078125 317.8984375 C88.46001263 319.23370179 88.46001263 319.23370179 88.6875 321.3125 C159.6375 321.3125 230.5875 321.3125 303.6875 321.3125 C300.53975288 318.16475288 299.04335962 316.74129836 295.32128906 314.90234375 C294.46649963 314.4751001 293.61171021 314.04785645 292.73101807 313.60766602 C291.81431335 313.15963623 290.89760864 312.71160645 289.953125 312.25 C289.0011322 311.7768335 288.0491394 311.30366699 287.06829834 310.81616211 C284.02838081 309.30737059 280.98309957 307.80978338 277.9375 306.3125 C275.90327912 305.3054279 273.8694208 304.29762309 271.8359375 303.2890625 C268.08328479 301.42903402 264.32856316 299.57333077 260.57128906 297.72265625 C259.74866577 297.31426514 258.92604248 296.90587402 258.07849121 296.48510742 C256.49838722 295.71018125 254.9098802 294.95213473 253.31311035 294.2121582 C247.81286769 291.62262008 247.81286769 291.62262008 246.5 288.375 C246.71668819 284.83575953 247.8573248 283.2865347 249.6875 280.3125 C249.40075891 275.89050711 247.76933539 273.91652182 244.65234375 270.88671875 C243.84345703 270.09072266 243.03457031 269.29472656 242.20117188 268.47460938 C241.35103516 267.65798828 240.50089844 266.84136719 239.625 266 C238.77099609 265.16404297 237.91699219 264.32808594 237.03710938 263.46679688 C234.92928688 261.40607656 232.81270151 259.35526791 230.6875 257.3125 C225.98235688 258.74295402 223.13495276 261.48662545 219.80078125 264.94140625 C218.98615669 265.76595558 218.98615669 265.76595558 218.15507507 266.60716248 C216.42943578 268.35611975 214.71431983 270.11495214 213 271.875 C211.27324891 273.63681934 209.54436667 275.39647251 207.81278992 277.15354919 C206.73781223 278.2455008 205.66593618 279.34051624 204.5974884 280.43885803 C201.36947859 283.73192148 199.77587365 285.11814756 195.1875 285.9375 C191.02054809 285.859904 189.21683064 284.39656432 186.21875 281.58984375 C184.90874023 280.36491211 184.90874023 280.36491211 183.57226562 279.11523438 C177.59835328 273.35087866 171.78298966 267.42525681 165.97021484 261.49926758 C164.31776673 259.81683077 162.6593199 258.14049939 161 256.46484375 C160.49484863 255.94623276 159.98969727 255.42762177 159.46923828 254.89329529 C158.2461147 253.66134301 156.9710544 252.48135662 155.6875 251.3125 C152.2515367 251.3125 150.06820614 254.05219739 147.6875 256.3125 Z " fill="#000101" transform="translate(68.3125,49.6875)"/>
<path d="M0 0 C13.06356822 10.17119461 21.9590585 23.51543337 24.7890625 39.92578125 C27.00414181 58.40649192 22.78213174 76.84853403 11.3359375 91.65625 C0.47392019 104.76966726 -12.70216382 112.53751665 -29.4375 116 C-49.2105938 117.46467361 -67.85187182 111.98039021 -83.21875 99.2578125 C-95.6096028 87.67321382 -102.82379708 71.66666817 -103.98046875 54.80078125 C-104.14972809 35.40366115 -97.23083171 19.65930496 -84.15234375 5.6015625 C-61.24554602 -17.41996042 -26.17589616 -18.04605654 0 0 Z " fill="#040200" transform="translate(381.8125,62.75)"/>
<path d="M0 0 C3.96 0 7.92 0 12 0 C12.00634791 2.40365058 12.00634791 2.40365058 12.01282406 4.85585976 C12.11346824 42.88208144 12.21917154 80.90828619 12.33111694 118.93447635 C12.34488676 123.61338126 12.35861382 128.29228629 12.37231445 132.97119141 C12.37640691 134.36843833 12.37640691 134.36843833 12.38058204 135.79391246 C12.42467432 150.88272499 12.46530204 165.97154496 12.50465261 181.06037052 C12.5450976 196.53932076 12.58925825 212.01825717 12.63687855 227.49718702 C12.66615267 237.0508786 12.69251783 246.60456916 12.71517897 256.15827875 C12.73098946 262.70685326 12.75040442 269.25541087 12.77266841 275.8039666 C12.78541251 279.58385637 12.79655337 283.3637332 12.80341911 287.14363861 C12.81090183 291.24037007 12.82596741 295.33703858 12.84178162 299.43374634 C12.84324878 301.22849457 12.84324878 301.22849457 12.84474558 303.05950034 C12.85022002 304.15826605 12.85569446 305.25703176 12.8613348 306.3890934 C12.86399284 307.33459702 12.86665089 308.28010064 12.86938947 309.25425589 C12.97285204 312.56074076 12.97285204 312.56074076 14 318 C118.61 318.33 223.22 318.66 331 319 C331 322.96 331 326.92 331 331 C221.77 331 112.54 331 0 331 C0 221.77 0 112.54 0 0 Z " fill="#0051B5" transform="translate(63,63)"/>
<path d="M0 0 C-0.80292655 8.83219205 -3.85881971 17.14824649 -8 24.9453125 C-9.61689507 28.26752659 -10.75903798 31.75286189 -11.984375 35.234375 C-13.45808573 39.24740269 -15.20078112 43.12402316 -17 47 C-22.66292135 45.36404494 -22.66292135 45.36404494 -24.5625 43.3125 C-25.036875 42.879375 -25.51125 42.44625 -26 42 C-34.11761411 42.83051497 -39.54385125 50.47064523 -45.0625 55.9375 C-45.54468994 56.41485596 -46.02687988 56.89221191 -46.52368164 57.3840332 C-49.05696546 59.92926849 -51.46679712 62.53054403 -53.78686523 65.27148438 C-63.75988457 76.69953784 -74.81095198 87.23884858 -85.48730469 98.00219727 C-88.50642286 101.04822074 -91.51411386 104.10490258 -94.51269531 107.17114258 C-98.14715171 110.88734988 -101.8006926 114.58373139 -105.46878052 118.26673698 C-106.85994927 119.67016467 -108.24420611 121.0804792 -109.62130737 122.49771309 C-111.54310976 124.47276152 -113.48842609 126.42132327 -115.44140625 128.36547852 C-116.00368927 128.9549527 -116.56597229 129.54442688 -117.14529419 130.15176392 C-120.11280554 133.0506464 -121.50030549 133.99953423 -125.71603394 134.00346375 C-129.88918717 132.72829589 -132.27586207 130.48497967 -135.1953125 127.390625 C-135.75064667 126.82680115 -136.30598083 126.26297729 -136.87814331 125.68206787 C-138.64176285 123.8850414 -140.38336867 122.06831906 -142.125 120.25 C-143.30197599 119.04289498 -144.48034947 117.83715089 -145.66015625 116.6328125 C-147.83447596 114.4096777 -150.00024566 112.17890335 -152.15673828 109.93847656 C-158.10644375 102.87180362 -158.10644375 102.87180362 -166.2265625 99.91015625 C-171.48547338 101.42903424 -173.85595323 104.38601091 -177.375 108.4375 C-178.03056885 109.16453125 -178.6861377 109.8915625 -179.36157227 110.640625 C-181.25653445 112.74722988 -183.12998431 114.87125968 -185 117 C-186.64102981 118.83770754 -188.28947803 120.66854602 -189.9375 122.5 C-190.62457031 123.27085937 -191.31164062 124.04171875 -192.01953125 124.8359375 C-194.62307506 127.68083547 -197.36156012 130.3735828 -200.109375 133.078125 C-201.95055372 134.94973642 -203.66806581 136.880918 -205.375 138.875 C-208.11621449 142.06682509 -211.00685888 145.04302977 -214 148 C-216.93118191 150.89591958 -219.76403174 153.80242571 -222.4375 156.9375 C-225.27585109 160.26452946 -228.31321006 163.31508417 -231.4375 166.375 C-235.78860279 170.66035811 -239.61269994 175.09921698 -243.24609375 180.00390625 C-245.17424132 182.19830137 -246.22642005 183.10421511 -249 184 C-251.62426505 184.13958857 -254.13292747 184.18931369 -256.75 184.125 C-257.44738281 184.11597656 -258.14476562 184.10695313 -258.86328125 184.09765625 C-260.57566958 184.07419888 -262.28788004 184.03833104 -264 184 C-264 177.7971268 -260.03717235 174.46363422 -256 170 C-254.28261655 168.41360342 -252.51822451 166.94012382 -250.69921875 165.47265625 C-248.19493899 163.30228046 -246.15655901 160.79139721 -244.015625 158.26953125 C-241.61693447 155.56868009 -239.07211999 153.03343168 -236.5 150.5 C-233.4048197 147.44690625 -230.3806371 144.37673948 -227.5625 141.0625 C-224.54647173 137.523209 -221.30552099 134.26505555 -218 131 C-214.71532009 127.75548124 -211.49265996 124.52077642 -208.5 121 C-205.06516532 116.95901802 -201.3203259 113.26193359 -197.52539062 109.5625 C-194.81370709 106.89788173 -192.25226128 104.16810648 -189.77734375 101.28125 C-185.29562331 96.1000703 -180.42689551 91.31886841 -175.5625 86.5 C-174.64017578 85.5821875 -173.71785156 84.664375 -172.76757812 83.71875 C-170.51400101 81.47684945 -168.25810925 79.237334 -166 77 C-160.9762305 80.06602262 -157.14857058 83.67135383 -153.09765625 87.91796875 C-151.7824885 89.2681506 -150.46671489 90.61774252 -149.15039062 91.96679688 C-147.09872555 94.08046214 -145.05210566 96.19836551 -143.01586914 98.3269043 C-141.03583556 100.3917318 -139.03726802 102.43707276 -137.03515625 104.48046875 C-136.4338942 105.11897263 -135.83263214 105.7574765 -135.21315002 106.41532898 C-132.30886916 109.35416033 -130.43289487 110.8594374 -126.43530273 112.1574707 C-120.88630742 111.90311053 -117.54384242 108.71227404 -113.8598175 104.83363342 C-112.74423003 103.61000958 -111.63406131 102.38142956 -110.52856445 101.14868164 C-104.03000687 94.04794754 -97.30307568 87.23109616 -90.4385891 80.48568535 C-87.79991099 77.89019884 -85.17153734 75.28436784 -82.54224873 72.67937565 C-77.68335751 67.86576528 -72.82001725 63.05680938 -67.94116211 58.26342773 C-64.51018879 54.89178459 -61.09150772 51.50810076 -57.68065834 48.11610603 C-56.38818225 46.83534547 -55.09119081 45.5591244 -53.78957176 44.28765678 C-51.98107827 42.52012307 -50.18867863 40.73765092 -48.39916992 38.95092773 C-47.86371552 38.43502075 -47.32826111 37.91911377 -46.77658081 37.38757324 C-43.52130826 34.09594175 -42.06288571 31.67579899 -42 27 C-43.29352333 25.30225062 -44.62517293 23.63260714 -46 22 C-45.88745117 20.0012207 -45.88745117 20.0012207 -45 18 C-43.20043945 16.71557617 -43.20043945 16.71557617 -40.80078125 15.60546875 C-39.89537598 15.18442871 -38.9899707 14.76338867 -38.05712891 14.32958984 C-32.46946489 11.89943346 -26.84288306 9.58020679 -21.1875 7.3125 C-19.98673828 6.82716797 -18.78597656 6.34183594 -17.54882812 5.84179688 C-14.36758964 4.55689554 -11.18458506 3.27658052 -8 2 C-6.66835815 1.42995239 -6.66835815 1.42995239 -5.30981445 0.84838867 C-3 0 -3 0 0 0 Z " fill="#80B100" transform="translate(388,188)"/>
<path d="M0 0 C2.23087302 0.00318871 4.46044835 -0.02054627 6.69116211 -0.0456543 C17.74388354 -0.09412781 28.23100343 0.92438335 38.53295898 5.31567383 C38.53295898 5.97567383 38.53295898 6.63567383 38.53295898 7.31567383 C39.34120117 7.30922852 40.14944336 7.3027832 40.98217773 7.29614258 C46.44126818 8.86360419 49.47355133 12.60436329 53.34545898 16.62817383 C54.14209961 17.43963867 54.93874023 18.25110352 55.75952148 19.0871582 C61.62465167 25.14907263 66.70395944 31.41710305 71.53295898 38.31567383 C73.37256769 40.62173292 73.37256769 40.62173292 76.17163086 40.34326172 C77.27055664 40.24263428 78.36948242 40.14200684 79.50170898 40.03833008 C80.71342773 39.93713867 81.92514648 39.83594727 83.17358398 39.73168945 C84.44717773 39.6150293 85.72077148 39.49836914 87.03295898 39.37817383 C102.89592433 37.93832998 115.7705547 37.90922091 128.84545898 48.19067383 C137.99455017 56.11811568 146.8668974 64.79627832 154.63842773 74.08520508 C156.33316116 76.08044793 158.07148987 78.01699855 159.83374023 79.95239258 C161.04607893 81.302564 162.25831739 82.65282544 163.47045898 84.00317383 C164.06358887 84.64577148 164.65671875 85.28836914 165.26782227 85.95043945 C169.40098618 90.60282074 169.40098618 90.60282074 170.04858398 94.10083008 C169.23187094 97.60898385 167.2906293 99.10953757 164.53295898 101.31567383 C162.09460449 102.13969421 162.09460449 102.13969421 159.53295898 102.31567383 C157.58361816 101.16511536 157.58361816 101.16511536 155.73413086 99.38134766 C154.70147095 98.40447495 154.70147095 98.40447495 153.64794922 97.40786743 C152.95000244 96.71744354 152.25205566 96.02701965 151.53295898 95.31567383 C150.8678833 94.67689301 150.20280762 94.03811218 149.51757812 93.37997437 C147.43019363 91.36056461 145.36950562 89.31693306 143.31420898 87.26489258 C142.19919006 86.15486626 142.19919006 86.15486626 141.06164551 85.02241516 C139.50748672 83.47328016 137.95464419 81.92282359 136.40307617 80.37109375 C134.01687591 77.98710567 131.62275639 75.61125912 129.22827148 73.2355957 C127.71476277 71.72501666 126.20172453 70.21396606 124.68920898 68.70239258 C123.97059692 67.99096603 123.25198486 67.27953949 122.51159668 66.54655457 C121.52927063 65.55961357 121.52927063 65.55961357 120.52709961 64.55273438 C119.9472229 63.97428268 119.36734619 63.39583099 118.76989746 62.79985046 C117.53295898 61.31567383 117.53295898 61.31567383 117.53295898 59.31567383 C110.96231838 55.20089147 101.16739811 57.00825603 93.84545898 58.08129883 C81.69231435 59.31303646 70.31071418 59.32454555 60.34545898 51.56567383 C58.37107929 49.8426296 56.44194118 48.10788789 54.53295898 46.31567383 C53.94820801 45.7679834 53.36345703 45.22029297 52.76098633 44.65600586 C44.62682168 36.95029004 37.31781709 28.92003445 30.60717773 19.94848633 C28.42198449 17.17481355 27.74013354 16.47829907 24.33105469 16.01904297 C12.81014887 15.11335659 1.27078933 14.97053545 -10.27954102 14.75317383 C-12.43644882 14.70988977 -14.59334997 14.66627267 -16.75024414 14.62231445 C-21.98910759 14.51626105 -27.22804051 14.41471517 -32.46704102 14.31567383 C-32.46704102 10.35567383 -32.46704102 6.39567383 -32.46704102 2.31567383 C-21.61554361 0.82118696 -10.95607421 -0.03260377 0 0 Z " fill="#DC313A" transform="translate(118.467041015625,168.684326171875)"/>
<path d="M0 0 C1.65 0 3.3 0 5 0 C5.15301017 16.02077016 5.29681432 32.04161721 5.4375 48.0625 C5.44866852 49.32515434 5.45983704 50.58780869 5.47134399 51.88872528 C5.80988311 90.26061628 6.05718999 128.63248658 6.23837018 167.00544524 C6.2590295 171.36668943 6.28004284 175.72793188 6.30103976 180.08917445 C6.39544117 199.72583028 6.48781764 219.36248748 6.56734198 238.99920982 C6.60129691 247.33540686 6.63856551 255.67158507 6.67825109 264.00775677 C6.70577919 269.833267 6.72915981 275.65877363 6.74934965 281.48431367 C6.7627351 285.05317938 6.78015667 288.62201673 6.79875672 292.19085872 C6.8065112 293.83452488 6.8126012 295.47819988 6.81688488 297.12187874 C6.82294512 299.35958983 6.83499046 301.59719272 6.84851074 303.83486938 C6.85366447 305.08198008 6.85881821 306.32909077 6.86412811 307.61399269 C6.94779757 311.45587437 6.94779757 311.45587437 8 317 C112.28 317.33 216.56 317.66 324 318 C324 319.98 324 321.96 324 324 C217.08 324 110.16 324 0 324 C0 217.08 0 110.16 0 0 Z " fill="#0064D7" transform="translate(69,64)"/>
<path d="M0 0 C0.53434736 4.44629777 0.78344529 8.57459284 0 13 C-2.05024313 15.1904307 -4.01713499 16.28619556 -6.66796875 17.66796875 C-11.07352376 20.18437454 -13.41187957 24.23563872 -15 29 C-15.89613092 36.051522 -14.66396176 42.88392946 -11 49 C-5.59948257 54.02979545 0.37612573 55.51786164 7.5078125 56.5078125 C11.14390941 57.22591314 13.18367521 58.62835807 16 61 C17.97573586 64.95147172 17.57649875 69.70415448 17 74 C14.5625 77.125 14.5625 77.125 12 79 C11.67 79.33 11.34 79.66 11 80 C5.6694299 80.62607367 1.39861766 80.95106001 -3.125 77.875 C-5.13553242 74.79218363 -5.74560763 72.64629065 -6 69 C-9.63 69 -13.26 69 -17 69 C-16.566875 69.91523438 -16.13375 70.83046875 -15.6875 71.7734375 C-15.130625 72.96195312 -14.57375 74.15046875 -14 75.375 C-13.443125 76.55835938 -12.88625 77.74171875 -12.3125 78.9609375 C-11 82 -11 82 -11 84 C-9.948125 84.37125 -9.948125 84.37125 -8.875 84.75 C-7.92625 85.1625 -6.9775 85.575 -6 86 C-4.906875 86.45375 -3.81375 86.9075 -2.6875 87.375 C0 90 0 90 0.37890625 92.9296875 C0.37532372 95.97483858 0.25756875 98.96641245 0 102 C-10.23076343 103.05835484 -19.52754098 98.74132418 -27.8125 92.9375 C-37.54119327 84.71530214 -44.08484468 72.53556211 -46 60 C-47.25852774 42.77145879 -45.06201672 29.42467441 -33.7421875 15.953125 C-24.99481233 6.17259528 -13.19245109 0 0 0 Z " fill="#EF951B" transform="translate(337,63)"/>
<path d="M0 0 C11.05838137 -0.71344396 19.31362591 3.35544293 28 10 C30.6875 12.4375 30.6875 12.4375 33 15 C33.46921875 15.46535156 33.9384375 15.93070313 34.421875 16.41015625 C43.04494172 25.45548655 46.17863437 36.58590844 46.1875 48.6875 C46.19974609 49.54794922 46.21199219 50.40839844 46.22460938 51.29492188 C46.2571539 65.69044841 41.28831728 77.36510053 31.29296875 87.8125 C23.69378323 95.06214887 14.71262411 101.01913137 4 102 C1.23046875 101.54296875 1.23046875 101.54296875 -1 101 C-1.16800423 96.84693534 -1.06266865 93.03295713 0 89 C2.08337007 86.96388162 4.14318368 85.80732023 6.703125 84.43359375 C11.21726431 81.61609524 13.36015123 76.91954631 15 72 C15.49914836 66.7875819 15.67229146 62.39629765 13.375 57.625 C7.26423068 50.8709918 1.3082974 48.04155515 -7.28125 45.26171875 C-11.9382078 43.70650337 -14.72941765 42.4465571 -17 38 C-17.59753835 34.54565925 -17.67898289 31.44583819 -17 28 C-14.5625 24.9375 -14.5625 24.9375 -12 23 C-11.67 22.67 -11.34 22.34 -11 22 C-0.41735991 20.87929681 -0.41735991 20.87929681 3.6875 24.125 C5.06241998 27.13672949 5.6939767 29.71024951 6 33 C9.63 33 13.26 33 17 33 C13.97451025 24.54475717 13.97451025 24.54475717 8 18 C7.13375 17.2575 6.2675 16.515 5.375 15.75 C3.04215102 13.84284089 3.04215102 13.84284089 0 13 C0 8.71 0 4.42 0 0 Z " fill="#EE951A" transform="translate(348,64)"/>
<path d="M0 0 C0.99 0 1.98 0 3 0 C2.19707345 8.83219205 -0.85881971 17.14824649 -5 24.9453125 C-6.61689507 28.26752659 -7.75903798 31.75286189 -8.984375 35.234375 C-10.45808573 39.24740269 -12.20078112 43.12402316 -14 47 C-19.66292135 45.36404494 -19.66292135 45.36404494 -21.5625 43.3125 C-22.036875 42.879375 -22.51125 42.44625 -23 42 C-31.11761411 42.83051497 -36.54385125 50.47064523 -42.0625 55.9375 C-42.54468994 56.41485596 -43.02687988 56.89221191 -43.52368164 57.3840332 C-46.05696546 59.92926849 -48.46679712 62.53054403 -50.78686523 65.27148438 C-60.75988457 76.69953784 -71.81095198 87.23884858 -82.48730469 98.00219727 C-85.50642286 101.04822074 -88.51411386 104.10490258 -91.51269531 107.17114258 C-95.14715171 110.88734988 -98.8006926 114.58373139 -102.46878052 118.26673698 C-103.85994927 119.67016467 -105.24420611 121.0804792 -106.62130737 122.49771309 C-108.54310976 124.47276152 -110.48842609 126.42132327 -112.44140625 128.36547852 C-113.00368927 128.9549527 -113.56597229 129.54442688 -114.14529419 130.15176392 C-117.11280554 133.0506464 -118.50030549 133.99953423 -122.71603394 134.00346375 C-126.88918717 132.72829589 -129.27586207 130.48497967 -132.1953125 127.390625 C-132.75064667 126.82680115 -133.30598083 126.26297729 -133.87814331 125.68206787 C-135.64176285 123.8850414 -137.38336867 122.06831906 -139.125 120.25 C-140.30197599 119.04289498 -141.48034947 117.83715089 -142.66015625 116.6328125 C-144.83447596 114.4096777 -147.00024566 112.17890335 -149.15673828 109.93847656 C-155.10644375 102.87180362 -155.10644375 102.87180362 -163.2265625 99.91015625 C-168.48547338 101.42903424 -170.85595323 104.38601091 -174.375 108.4375 C-175.03056885 109.16453125 -175.6861377 109.8915625 -176.36157227 110.640625 C-178.25653445 112.74722988 -180.12998431 114.87125968 -182 117 C-183.64102981 118.83770754 -185.28947803 120.66854602 -186.9375 122.5 C-187.62457031 123.27085937 -188.31164062 124.04171875 -189.01953125 124.8359375 C-191.62307506 127.68083547 -194.36156012 130.3735828 -197.109375 133.078125 C-198.95055372 134.94973642 -200.66806581 136.880918 -202.375 138.875 C-205.11621449 142.06682509 -208.00685888 145.04302977 -211 148 C-213.93118191 150.89591958 -216.76403174 153.80242571 -219.4375 156.9375 C-222.27585109 160.26452946 -225.31321006 163.31508417 -228.4375 166.375 C-232.78860279 170.66035811 -236.61269994 175.09921698 -240.24609375 180.00390625 C-242.09330492 182.1061889 -243.38494194 183.05045465 -246 184 C-248.33203812 184.0777346 -250.66839059 184.08967728 -253 184 C-248.90535795 177.27793803 -244.22979621 171.8742961 -238.5625 166.4375 C-233.69028328 161.71253249 -228.96974072 156.96969795 -224.57202148 151.79516602 C-222.95308734 149.9464282 -221.25496272 148.21936824 -219.5 146.5 C-217.10722509 144.14966899 -214.86808888 141.735776 -212.6875 139.1875 C-209.92381971 135.97666245 -207.01380404 132.97732835 -204 130 C-201.11010172 127.14476317 -198.31548255 124.28499804 -195.6875 121.1875 C-191.95190478 116.81303814 -187.85454111 112.82799985 -183.76733398 108.78686523 C-180.24600783 105.28996799 -176.91068723 101.70768671 -173.69921875 97.921875 C-170.32164142 94.10171857 -166.64116595 90.56685644 -163 87 C-157.76732265 90.16526665 -153.82990545 94.01209599 -149.625 98.42578125 C-148.21428075 99.87637018 -146.80279965 101.32621852 -145.390625 102.77539062 C-143.18387011 105.05042871 -140.98301989 107.33029414 -138.79492188 109.62329102 C-136.67064979 111.84414249 -134.52505463 114.04242081 -132.375 116.23828125 C-131.7248291 116.93085526 -131.0746582 117.62342926 -130.40478516 118.33699036 C-129.78394043 118.96481918 -129.1630957 119.59264801 -128.5234375 120.23950195 C-127.98638184 120.79813431 -127.44932617 121.35676666 -126.89599609 121.93232727 C-124.00814092 123.55853538 -122.15075631 122.80315319 -119 122 C-116.5366645 120.34941869 -116.5366645 120.34941869 -114.32131958 118.12275696 C-113.45695408 117.30464853 -112.59258858 116.48654011 -111.70203018 115.64364052 C-110.81036022 114.77123915 -109.91869026 113.89883778 -109 113 C-108.12868313 112.15644644 -107.25736626 111.31289288 -106.35964584 110.44377708 C-103.50817373 107.65887511 -100.6809114 104.85053118 -97.85888672 102.03588867 C-96.78371011 100.96699581 -95.7083517 99.8982858 -94.63282776 98.82974243 C-91.1449596 95.36264662 -87.66218411 91.89045851 -84.1796875 88.41796875 C-82.97428582 87.21662124 -81.76885272 86.01530524 -80.56338882 84.81402016 C-74.91076258 79.18036669 -69.26049526 73.54436061 -63.61316001 67.90540332 C-57.10486474 61.40692641 -50.588327 54.91686004 -44.06486499 48.43360919 C-39.00886948 43.40771244 -33.96051648 38.3742217 -28.91788876 33.33491307 C-25.91035583 30.32973266 -22.89959412 27.32796232 -19.88070297 24.33418846 C-17.0499798 21.52664923 -14.22881506 18.70985373 -11.41482353 15.88554764 C-10.37983109 14.85005779 -9.34139251 13.81799961 -8.29933739 12.78961754 C-6.88062706 11.38849351 -5.47530244 9.97385378 -4.07077026 8.55851746 C-3.27995497 7.77009051 -2.48913967 6.98166357 -1.67436028 6.1693449 C0.40733431 3.92897268 0.40733431 3.92897268 0 0 Z " fill="#769E00" transform="translate(385,188)"/>
<path d="M0 0 C2.23087302 0.00318871 4.46044835 -0.02054627 6.69116211 -0.0456543 C17.74388354 -0.09412781 28.23100343 0.92438335 38.53295898 5.31567383 C38.53295898 5.97567383 38.53295898 6.63567383 38.53295898 7.31567383 C39.34120117 7.30922852 40.14944336 7.3027832 40.98217773 7.29614258 C46.44126818 8.86360419 49.47355133 12.60436329 53.34545898 16.62817383 C54.14209961 17.43963867 54.93874023 18.25110352 55.75952148 19.0871582 C61.62465167 25.14907263 66.70395944 31.41710305 71.53295898 38.31567383 C73.37256769 40.62173292 73.37256769 40.62173292 76.17163086 40.34326172 C77.27055664 40.24263428 78.36948242 40.14200684 79.50170898 40.03833008 C80.71342773 39.93713867 81.92514648 39.83594727 83.17358398 39.73168945 C84.44717773 39.6150293 85.72077148 39.49836914 87.03295898 39.37817383 C102.89592433 37.93832998 115.7705547 37.90922091 128.84545898 48.19067383 C137.99455017 56.11811568 146.8668974 64.79627832 154.63842773 74.08520508 C156.33316116 76.08044793 158.07148987 78.01699855 159.83374023 79.95239258 C161.04607893 81.302564 162.25831739 82.65282544 163.47045898 84.00317383 C164.06358887 84.64577148 164.65671875 85.28836914 165.26782227 85.95043945 C169.39564837 90.59681238 169.39564837 90.59681238 170.06420898 94.09692383 C169.24963728 97.49895861 167.13125988 99.09761209 164.53295898 101.31567383 C164.20295898 101.31567383 163.87295898 101.31567383 163.53295898 101.31567383 C163.39760742 100.1806543 163.39760742 100.1806543 163.25952148 99.02270508 C162.40020814 95.82106988 161.48683983 95.00952321 158.90795898 93.00317383 C156.10151271 90.69256612 153.62498478 88.40860839 151.28295898 85.62817383 C148.75406831 82.63267691 146.08602514 79.86534372 143.27270508 77.13500977 C137.51026826 71.54115005 132.5826791 65.74028574 127.88452148 59.22583008 C123.209379 53.4401471 118.90032441 50.16893245 111.53295898 49.31567383 C108.48940161 49.24328947 105.50288664 49.4424836 102.47045898 49.69067383 C100.79090125 49.79563595 99.11120963 49.89847555 97.43139648 49.99926758 C95.08349741 50.14892898 92.73611274 50.30118929 90.3894043 50.46850586 C79.43930508 51.19122308 71.74168245 49.36787037 63.14233398 42.37036133 C58.31622744 37.79737226 54.38311807 32.57919576 50.41015625 27.2746582 C44.12756248 18.99333314 36.33607309 8.9192013 25.70898438 6.73535156 C15.82611578 5.42943634 5.53086452 6.38172483 -4.40454102 6.75317383 C-5.62496094 6.79756592 -6.84538086 6.84195801 -8.1027832 6.88769531 C-16.2399565 7.19677753 -24.35418611 7.59893665 -32.46704102 8.31567383 C-32.46704102 6.33567383 -32.46704102 4.35567383 -32.46704102 2.31567383 C-21.61554361 0.82118696 -10.95607421 -0.03260377 0 0 Z " fill="#F04449" transform="translate(118.467041015625,168.684326171875)"/>
<path d="M0 0 C8.0850172 2.62281808 14.24003463 10.3614124 19.6484375 16.58203125 C21.87083174 19.13383175 24.19713154 21.49726581 26.625 23.8515625 C27.285 24.5115625 27.945 25.1715625 28.625 25.8515625 C32.48057601 26.1086009 35.86612332 25.64928675 39.625 24.8515625 C41.96109053 30.66349103 44.28581117 36.47983795 46.60302734 42.29931641 C47.48101942 44.49198939 48.37160572 46.67872519 49.26953125 48.86328125 C49.71683594 49.97316406 50.16414063 51.08304687 50.625 52.2265625 C51.016875 53.18304688 51.40875 54.13953125 51.8125 55.125 C52.71476482 58.15279252 52.77331835 60.7090674 52.625 63.8515625 C39.6864184 62.0031937 27.86580463 54.13879221 16.625 47.8515625 C17.5 41.9765625 17.5 41.9765625 18.625 40.8515625 C19.08268745 37.5447707 18.86478207 36.19680428 16.9375 33.421875 C16.174375 32.61492187 15.41125 31.80796875 14.625 30.9765625 C13.38556641 29.66558594 13.38556641 29.66558594 12.12109375 28.328125 C9.42878983 25.65688762 6.64277506 23.16567343 3.7578125 20.70703125 C1.12967241 18.42064564 -1.41695854 16.06875735 -3.9375 13.6640625 C-4.80503906 12.84550781 -5.67257812 12.02695312 -6.56640625 11.18359375 C-8.375 8.8515625 -8.375 8.8515625 -8.29296875 6.7265625 C-6.53335221 3.13245213 -4.26324926 -0.26645308 0 0 Z " fill="#EE4449" transform="translate(313.375,289.1484375)"/>
<path d="M0 0 C0 1.65 0 3.3 0 5 C-1.19625 5.350625 -2.3925 5.70125 -3.625 6.0625 C-5.42338517 6.6893819 -7.21419041 7.33814334 -9 8 C-10.12148438 8.40605469 -11.24296875 8.81210938 -12.3984375 9.23046875 C-24.88093567 14.49694574 -29.38372426 23.52373787 -34.5 35.625 C-37.87270692 44.52519882 -39.17884591 57.08246023 -35.3125 66 C-34.58063477 67.35511442 -33.80965545 68.68987792 -33 70 C-32.59136719 70.70640625 -32.18273437 71.4128125 -31.76171875 72.140625 C-30.56591658 74.13979891 -29.3075785 76.07259533 -28 78 C-27.4225 78.86625 -26.845 79.7325 -26.25 80.625 C-19.08225644 88.19095153 -9.54470014 91.45374777 0 95 C0 96.98 0 98.96 0 101 C-9.64393828 102.15727259 -19.0477024 97.38648077 -26.8125 91.9375 C-36.54119327 83.71530214 -43.08484468 71.53556211 -45 59 C-46.25852774 41.77145879 -44.06201672 28.42467441 -32.7421875 14.953125 C-24.04502969 5.22874382 -13.11417756 -0.84607597 0 0 Z " fill="#EBBB48" transform="translate(336,64)"/>
<path d="M0 0 C10.50956039 -0.77848595 18.79651833 3.72482677 27 10 C29.6875 12.4375 29.6875 12.4375 32 15 C32.46921875 15.46535156 32.9384375 15.93070313 33.421875 16.41015625 C42.04494172 25.45548655 45.17863437 36.58590844 45.1875 48.6875 C45.19974609 49.54794922 45.21199219 50.40839844 45.22460938 51.29492188 C45.2571539 65.69044841 40.28831728 77.36510053 30.29296875 87.8125 C22.55828548 95.19141419 13.80034522 100.74748848 3 102 C-0.0625 101.625 -0.0625 101.625 -2 101 C-2 99.02 -2 97.04 -2 95 C0.33657828 93.98748274 2.61671259 93.08834134 5.1015625 92.515625 C15.11934847 90.10091438 24.19057054 83.65919187 31 76 C33.04132595 72.70207313 33.04132595 72.70207313 34.75 69.125 C35.34296875 67.95195312 35.9359375 66.77890625 36.546875 65.5703125 C40.61369845 55.57817102 39.72671335 44.9292153 36 35 C31.71768636 25.9595601 27.61421314 18.39637175 19.125 12.8125 C18.11695313 12.13832031 17.10890625 11.46414062 16.0703125 10.76953125 C10.87000616 7.77240813 5.92308694 6.71077043 0 6 C0 4.02 0 2.04 0 0 Z " fill="#EFC572" transform="translate(349,64)"/>
<path d="M0 0 C0.33 0 0.66 0 1 0 C1 1.98 1 3.96 1 6 C2.4540625 5.87625 2.4540625 5.87625 3.9375 5.75 C13.00796174 5.82270911 21.54385385 12.14942278 28 18 C30.73763404 21.476441 32.91040683 25.10627721 35 29 C35.40992188 29.71414062 35.81984375 30.42828125 36.2421875 31.1640625 C41.53785741 40.86634826 42.18762535 51.53089282 39.91015625 62.2265625 C38.06632804 67.8450948 34.97940612 72.91748367 32 78 C31.34 78 30.68 78 30 78 C30.14295891 76.60386935 30.28951558 75.20810692 30.4375 73.8125 C30.51871094 73.03519531 30.59992188 72.25789063 30.68359375 71.45703125 C31 69 31 69 31.5234375 66.68359375 C33.84181413 53.62847287 32.07807488 40.26904027 25 29 C20.59542 23.51485715 15.94319174 20.50216828 9.375 18 C6.90261369 16.95899524 5.11902344 15.62458463 3 14 C2.01 13.67 1.02 13.34 0 13 C0 8.71 0 4.42 0 0 Z " fill="#E98416" transform="translate(348,64)"/>
<path d="M0 0 C0.66 0 1.32 0 2 0 C2 0.66 2 1.32 2 2 C2.56976563 2.25394531 3.13953125 2.50789063 3.7265625 2.76953125 C11.98327673 7.23837142 18.51819157 15.5706731 24.81030273 22.40332031 C28.27730183 26.16724721 31.79404464 29.84395498 35.4375 33.4375 C38.84487595 36.80055236 42.02042173 40.26850313 45.12890625 43.90625 C48.89452622 48.11997088 52.96907508 52.0420697 57 56 C56.01 56.66 55.02 57.32 54 58 C52.10742188 57.49609375 52.10742188 57.49609375 49.96875 56.4375 C49.17339844 56.05335938 48.37804687 55.66921875 47.55859375 55.2734375 C46.29208984 54.64308594 46.29208984 54.64308594 45 54 C43.2607541 53.18677794 41.52116559 52.37428825 39.78125 51.5625 C38.01977789 50.71051201 36.25936604 49.8563286 34.5 49 C33.59507812 48.57460938 32.69015625 48.14921875 31.7578125 47.7109375 C30.47003906 47.08058594 30.47003906 47.08058594 29.15625 46.4375 C28.38087891 46.06496094 27.60550781 45.69242187 26.80664062 45.30859375 C25 44 25 44 24.18164062 41.96875 C23.94693809 39.42487733 24.84244608 38.24701643 26 36 C26.45307277 32.67187286 26.2530815 31.36439049 24.3125 28.5703125 C23.549375 27.76335937 22.78625 26.95640625 22 26.125 C20.76056641 24.81402344 20.76056641 24.81402344 19.49609375 23.4765625 C16.80378983 20.80532512 14.01777506 18.31411093 11.1328125 15.85546875 C8.50467241 13.56908314 5.95804146 11.21719485 3.4375 8.8125 C2.56996094 7.99394531 1.70242188 7.17539062 0.80859375 6.33203125 C-1 4 -1 4 -0.77734375 1.69921875 C-0.52082031 1.13847656 -0.26429688 0.57773437 0 0 Z " fill="#DC323C" transform="translate(306,294)"/>
<path d="M0 0 C0 1.65 0 3.3 0 5 C-1.19625 5.350625 -2.3925 5.70125 -3.625 6.0625 C-5.42338517 6.6893819 -7.21419041 7.33814334 -9 8 C-10.12148438 8.40605469 -11.24296875 8.81210938 -12.3984375 9.23046875 C-24.28683086 14.24628764 -28.79223988 22.27566689 -33.65625 33.86328125 C-34.84680217 36.889268 -35.96563139 39.91768549 -37 43 C-37.99 43 -38.98 43 -40 43 C-40.05441656 41.10448978 -40.09298035 39.2085208 -40.125 37.3125 C-40.14820313 36.25675781 -40.17140625 35.20101562 -40.1953125 34.11328125 C-39.99668858 30.94721592 -39.28262812 28.87133795 -38 26 C-37.79375 24.9275 -37.5875 23.855 -37.375 22.75 C-33.61615425 12.4986025 -24.19394484 6.64891426 -14.8359375 1.90234375 C-9.90311621 -0.21031875 -5.31143474 -0.33196467 0 0 Z " fill="#F2CA74" transform="translate(336,64)"/>
<path d="M0 0 C1.32 0 2.64 0 4 0 C4 4.29 4 8.58 4 13 C2 14 2 14 -1.5 13.9375 C-6.48970327 13.85494976 -11.15675508 14.88843559 -16 16 C-15.78515625 14.16796875 -15.78515625 14.16796875 -15 12 C-9.52956238 8.04379657 -3.65096252 6.36949792 3 6 C3 4.35 3 2.7 3 1 C2.01 0.67 1.02 0.34 0 0 Z " fill="#DF831B" transform="translate(333,63)"/>
<path d="M0 0 C1.12329712 0.07069702 1.12329712 0.07069702 2.26928711 0.14282227 C3.07817383 0.19116211 3.88706055 0.23950195 4.72045898 0.28930664 C5.99566406 0.37341797 5.99566406 0.37341797 7.29663086 0.45922852 C8.57763672 0.53753906 8.57763672 0.53753906 9.88452148 0.61743164 C12.00135081 0.74751612 14.1177833 0.88402822 16.23413086 1.02172852 C16.23413086 2.01172852 16.23413086 3.00172852 16.23413086 4.02172852 C10.28589538 6.55523622 4.74077225 7.97099447 -1.76586914 8.02172852 C-2.76586914 7.02172852 -2.76586914 7.02172852 -2.89086914 4.02172852 C-2.72469406 0.03352658 -2.72469406 0.03352658 0 0 Z " fill="#DEB24C" transform="translate(349.765869140625,157.978271484375)"/>
<path d="M0 0 C0.9659657 2.60810739 1.02770914 3.89420147 0.3125 6.625 C-1.16625774 9.30084735 -2.17750049 9.96508351 -5 11 C-4.54658132 9.72740489 -4.08704773 8.45698757 -3.625 7.1875 C-3.36976563 6.47980469 -3.11453125 5.77210937 -2.8515625 5.04296875 C-2 3 -2 3 0 0 Z " fill="#D0A441" transform="translate(298,86)"/>
</svg>
